<svg width="554" height="186" viewBox="0 0 554 186" fill="none" xmlns="http://www.w3.org/2000/svg">
<g clip-path="url(#clip0_251_1511)">
<rect width="554" height="186" rx="8" fill="#AEEFEB"/>
<ellipse cx="489" cy="93" rx="151" ry="131" fill="#D8F8F6"/>
<path d="M390.103 97.2725C392.507 128.016 376.289 151.789 430.976 159.022C440.657 160.302 454.035 161.219 465.324 160.954C474.471 160.74 484.532 159.761 493.421 156.98C508.104 152.383 519.041 143.045 519.38 124.856C519.726 106.245 504.428 94.0976 506.877 86.453C514.455 62.796 502.164 45.5777 477.894 39.4632C447.18 31.7261 434.786 57.3532 422.262 54.0202C401.962 48.6178 387.655 65.973 390.103 97.2725Z" fill="#9EE8E3"/>
<path d="M515.455 65.0478L442.762 43.2369L408.074 121.395L480.767 143.206L515.455 65.0478Z" fill="#C4E4E8"/>
<path d="M468.656 68.1865C467.451 70.9005 465.165 73.0328 462.342 74.3731C462.175 74.452 462.007 74.5287 461.837 74.6028C460.451 75.202 458.95 75.6163 457.392 75.8208C455.05 76.1293 452.583 75.9645 450.195 75.2487C447.954 74.5753 446.037 73.4923 444.53 72.1398C443.653 71.3563 442.914 70.481 442.33 69.5427C441.909 68.8739 441.569 68.1722 441.312 67.4477C440.477 65.1086 440.512 62.5367 441.606 60.0701C444.333 53.928 452.598 50.7671 460.066 53.0079C467.537 55.2489 471.381 62.0455 468.656 68.1865Z" fill="#E9F4F6"/>
<path d="M464.134 61.3043C462.589 55.6612 457.24 55.0972 457.24 55.0972C455.575 54.9696 453.957 55.3645 452.631 55.9924C451.306 56.6203 450.236 57.4703 449.22 58.3356C448.071 59.3136 446.973 60.3221 445.928 61.3585C445.724 61.5603 445.516 61.7767 445.498 62.0329C445.482 62.2662 445.628 62.4992 445.789 62.7145C447.232 64.6387 450.063 65.8923 452.892 66.7385C456.724 67.8851 460.828 68.4813 464.86 68.4767C464.953 66.0984 464.785 63.6846 464.134 61.3043Z" fill="#384955"/>
<path d="M461.836 74.603C460.45 75.2021 458.949 75.6164 457.391 75.8209C455.05 76.1294 452.582 75.9646 450.194 75.2489C447.953 74.5754 446.036 73.4925 444.529 72.1399C443.652 71.3564 442.913 70.4812 442.329 69.5428C443.554 69.1115 445.02 68.8495 446.629 68.7794C447.81 68.7267 449.068 68.7783 450.365 68.9441L450.366 68.9443C451.03 69.0274 451.702 69.1415 452.38 69.2864C453.566 69.5395 454.682 69.8703 455.711 70.2592C456.892 70.7077 457.955 71.2339 458.871 71.8129C460.208 72.6578 461.229 73.6143 461.836 74.603Z" fill="#FFCFBF"/>
<path d="M455.211 73.5816C456.596 73.7255 455.464 70.7194 455.464 70.7194L457.771 66.3937C458.444 65.1307 457.803 63.6623 456.338 63.1139C454.874 62.5654 454.116 62.5082 453.443 63.7711L450.251 69.1342C449.578 70.3973 453.256 73.3786 455.211 73.5816Z" fill="#FFCFBF"/>
<path d="M461.431 59.3289C461.431 59.3289 463.102 67.1552 458.897 68.173C456.315 68.798 454.006 67.0894 451.485 64.2362C449.316 61.7805 457.244 53.0062 461.431 59.3289Z" fill="#FFCFBF"/>
<path d="M453.901 67.0903C454.885 67.8412 455.967 68.3274 457.295 68.4363C457.577 68.4594 457.617 68.082 457.334 68.0589C456.079 67.956 455.082 67.4862 454.156 66.7798C453.944 66.6186 453.691 66.9308 453.901 67.0903Z" fill="#FF9F89"/>
<path d="M462.152 60.1943C462.301 59.7471 462.145 59.2612 461.856 58.863C461.567 58.4649 461.155 58.1388 460.748 57.8178C460.383 57.5295 460.008 57.2359 459.549 57.0608C459.087 56.8849 458.568 56.8399 458.059 56.8239C456.497 56.7745 454.893 56.9855 453.526 57.6098C453.465 57.6376 453.4 57.6709 453.379 57.7253C453.363 57.7678 453.378 57.8135 453.392 57.8562C453.691 58.7197 454.086 59.6272 453.79 60.4912C454.47 60.4205 455.134 60.2704 455.809 60.1745C457.943 59.8717 460.188 60.1275 462.141 60.8959L462.152 60.1943Z" fill="#384955"/>
<path d="M455.477 59.2743L455.079 58.5337C453.666 58.5172 452.288 59.0997 451.376 59.9875C450.464 60.8753 450 62.0421 449.957 63.2037C449.936 63.7749 450.027 64.3797 450.444 64.8361C450.76 65.1808 451.228 65.4045 451.683 65.619C451.779 65.664 451.884 65.7105 451.993 65.6986C452.106 65.6861 452.193 65.6143 452.27 65.5455C454.178 63.8484 455.265 61.5784 455.477 59.2743Z" fill="#384955"/>
<path d="M456.083 56.4046C454.55 56.7192 453.406 57.5821 452.328 58.4893C450.901 59.6908 449.472 60.8897 448.014 62.0664C447.937 62.1286 448.042 62.2375 448.12 62.1748C449.453 61.0987 450.77 60.0094 452.07 58.9063C453.233 57.9197 454.433 56.8859 456.11 56.5419C456.215 56.5204 456.189 56.3829 456.083 56.4046Z" fill="#4D6371"/>
<path d="M454.575 58.675C452.981 60.261 451.475 62.1037 449.44 63.3294C449.352 63.3824 449.458 63.4906 449.546 63.4378C451.596 62.2032 453.108 60.3533 454.711 58.7577C454.78 58.6886 454.644 58.6062 454.575 58.675Z" fill="#4D6371"/>
<path d="M461.836 74.6029C460.45 75.2021 458.949 75.6164 457.391 75.8209C455.05 76.1294 452.582 75.9646 450.194 75.2488C447.953 74.5754 446.036 73.4924 444.529 72.1399C443.653 71.3564 442.913 70.4811 442.329 69.5428C443.554 69.1115 445.02 68.8495 446.629 68.7794C447.74 69.6802 449.959 71.3237 452.371 72.252L452.372 72.2522C453.534 72.7 454.741 72.9808 455.89 72.933C456.961 72.8884 457.981 72.5595 458.871 71.8128C460.208 72.6578 461.229 73.6142 461.836 74.6029Z" fill="#384955"/>
<path d="M437.261 78.7408C443.968 80.7009 450.675 82.6611 457.382 84.6213C458.078 84.8245 458.503 83.9476 457.806 83.744C451.099 81.7838 444.392 79.8237 437.685 77.8635C436.99 77.6603 436.565 78.5372 437.261 78.7408Z" fill="#D3F0F4"/>
<path d="M435.569 82.4669C440.387 83.875 445.205 85.2831 450.023 86.6911C456.154 88.4829 462.285 90.2749 468.417 92.0667C470.709 92.7367 473.001 93.4066 475.294 94.0765C475.989 94.2798 476.414 93.4029 475.717 93.1992C470.899 91.7912 466.081 90.3831 461.263 88.9751C455.132 87.1832 449.001 85.3913 442.87 83.5995C440.577 82.9295 438.285 82.2596 435.993 81.5896C435.297 81.3863 434.872 82.2633 435.569 82.4669Z" fill="#D3F0F4"/>
<path d="M460.829 85.8273C469.566 88.3809 478.304 90.9345 487.042 93.4882C489.023 94.0671 491.003 94.6459 492.984 95.2248C493.679 95.4281 494.104 94.5511 493.408 94.3475C484.67 91.7939 475.932 89.2403 467.195 86.6866C465.214 86.1078 463.233 85.5289 461.252 84.95C460.557 84.7467 460.132 85.6237 460.829 85.8273Z" fill="#D3F0F4"/>
<path d="M479.155 95.275C483.356 96.497 487.557 97.7192 491.757 98.9412C492.453 99.1436 492.878 98.2667 492.181 98.0638C487.98 96.8418 483.78 95.6197 479.579 94.3976C478.883 94.1953 478.458 95.0723 479.155 95.275Z" fill="#D3F0F4"/>
<path d="M433.557 85.8543C439.916 87.5959 446.21 89.4954 452.429 91.5504C453.115 91.7772 453.538 90.8995 452.852 90.673C446.633 88.618 440.34 86.7185 433.981 84.9769C433.282 84.7855 432.856 85.6622 433.557 85.8543Z" fill="#D3F0F4"/>
<path d="M456.018 92.5882C467.313 95.9823 478.609 99.3765 489.904 102.771C490.598 102.979 491.022 102.102 490.328 101.893C479.032 98.4991 467.737 95.1049 456.441 91.7109C455.748 91.5024 455.323 92.3795 456.018 92.5882Z" fill="#D3F0F4"/>
<path d="M429.198 93.1314C434.016 94.5395 438.834 95.9475 443.652 97.3556C449.783 99.1475 455.914 100.939 462.046 102.731C464.338 103.401 466.63 104.071 468.923 104.741C469.618 104.944 470.043 104.067 469.346 103.864C464.528 102.456 459.71 101.048 454.892 99.6396C448.761 97.8477 442.63 96.0558 436.499 94.2639C434.206 93.594 431.914 92.924 429.622 92.2541C428.926 92.0508 428.501 92.9278 429.198 93.1314Z" fill="#D3F0F4"/>
<path d="M472.784 105.939C476.985 107.161 481.185 108.384 485.386 109.606C486.082 109.808 486.507 108.931 485.81 108.728C481.609 107.506 477.409 106.284 473.208 105.062C472.512 104.86 472.087 105.737 472.784 105.939Z" fill="#D3F0F4"/>
<path d="M427.187 96.5186C433.546 98.2602 439.839 100.16 446.059 102.215C446.745 102.442 447.168 101.564 446.482 101.337C440.263 99.2824 433.97 97.3829 427.611 95.6413C426.912 95.4499 426.486 96.3265 427.187 96.5186Z" fill="#D3F0F4"/>
<path d="M449.647 103.253C460.942 106.647 472.238 110.041 483.533 113.435C484.227 113.643 484.651 112.766 483.957 112.558C472.661 109.164 461.366 105.77 450.07 102.375C449.377 102.167 448.952 103.044 449.647 103.253Z" fill="#D3F0F4"/>
<path d="M480.551 63.5594C488.308 65.8022 496.065 68.0451 503.822 70.2879C504.518 70.4891 504.944 69.6123 504.246 69.4106C496.489 67.1678 488.732 64.9249 480.975 62.682C480.279 62.4807 479.854 63.3576 480.551 63.5594Z" fill="#D3F0F4"/>
<path d="M479.307 66.3292C487.064 68.5721 494.821 70.8149 502.578 73.0578C503.274 73.259 503.699 72.3822 503.002 72.1805C495.245 69.9377 487.488 67.6948 479.731 65.4519C479.035 65.2507 478.609 66.1275 479.307 66.3292Z" fill="#D3F0F4"/>
<path d="M478.082 69.8411C485.655 72.0476 493.228 74.2541 500.8 76.4606C501.496 76.6633 501.921 75.7864 501.224 75.5833C493.651 73.3768 486.078 71.1703 478.505 68.9638C477.81 68.761 477.385 69.6379 478.082 69.8411Z" fill="#D3F0F4"/>
<path d="M476.539 73.624C480.499 74.7338 484.46 75.8436 488.42 76.9534C489.118 77.149 489.544 76.2722 488.844 76.0761C484.883 74.9663 480.923 73.8565 476.962 72.7467C476.264 72.5511 475.839 73.4278 476.539 73.624Z" fill="#D3F0F4"/>
<path d="M491.537 78.0622C494.323 78.9102 497.109 79.7581 499.895 80.6062C500.588 80.817 501.012 79.9399 500.318 79.7289C497.532 78.8809 494.746 78.0329 491.96 77.1849C491.267 76.974 490.843 77.8512 491.537 78.0622Z" fill="#D3F0F4"/>
<path d="M475.007 77.0708C482.655 79.4155 490.375 81.598 498.16 83.6163C498.862 83.7982 499.289 82.9217 498.584 82.739C490.799 80.7207 483.079 78.5382 475.43 76.1935C474.738 75.9812 474.314 76.8584 475.007 77.0708Z" fill="#D3F0F4"/>
<path d="M472.684 155.358L392.975 141.196L415.498 55.4939L483.329 67.5457L493.116 77.6143L472.684 155.358Z" fill="white"/>
<path d="M446.902 78.4698C446.12 81.446 444.106 83.9426 441.395 85.6764C439.932 86.6125 438.266 87.3267 436.481 87.7739C434.09 88.3728 431.485 88.4934 428.867 88.0284C426.409 87.5916 424.219 86.6878 422.408 85.4542C420.606 84.2295 419.177 82.6789 418.227 80.9375C416.946 78.5936 416.531 75.9046 417.242 73.2C419.012 66.4659 427.087 62.1862 435.277 63.6414C443.467 65.0965 448.672 71.7357 446.902 78.4698Z" fill="#E9F4F6"/>
<path d="M430.595 67.3974C429.529 67.3364 428.389 67.5604 427.648 68.262C427.304 68.5889 427.092 68.9878 427.036 69.4206C426.977 69.8688 427.051 70.3161 427.085 70.7625C427.12 71.2226 427.108 71.6969 426.835 72.1127C426.578 72.504 426.151 72.8311 426.05 73.2854C425.945 73.7573 426.237 74.226 426.071 74.6941C425.986 74.9349 425.818 75.1476 425.667 75.3619C425.513 75.5784 425.386 75.8015 425.304 76.0439C425.12 76.5823 425.127 77.1666 425.198 77.7168C425.252 78.1299 425.386 78.5679 425.822 78.8044C425.906 78.8497 425.978 78.733 425.895 78.6881C425.491 78.4693 425.389 78.0312 425.347 77.6541C425.291 77.1608 425.282 76.6497 425.426 76.164C425.5 75.9141 425.621 75.6834 425.776 75.4613C425.912 75.2658 426.063 75.0752 426.163 74.8638C426.367 74.4341 426.211 74.0353 426.184 73.5967C426.154 73.1115 426.502 72.7701 426.81 72.3906C427.092 72.0433 427.23 71.6713 427.251 71.2537C427.295 70.403 426.932 69.4968 427.462 68.7023C428.088 67.7644 429.415 67.4601 430.603 67.528C430.702 67.5336 430.694 67.4031 430.595 67.3974Z" fill="#384955"/>
<path d="M433.782 73.7623C434.045 72.602 434.385 71.4533 434.8 70.3233L430.898 67.3844C430.082 67.4653 429.231 67.6259 428.612 68.0868C427.678 68.7819 427.524 69.955 427.61 70.9962C427.697 72.0374 427.955 73.1052 427.601 74.1097C427.223 75.1802 426.191 76.04 425.901 77.1288C425.582 78.3243 426.261 79.5931 427.356 80.3827C428.451 81.1722 429.898 81.5404 431.336 81.6799C431.408 81.6869 431.482 81.6931 431.551 81.6727C431.68 81.6344 431.748 81.5169 431.8 81.4099C432.977 78.986 433.198 76.3301 433.782 73.7623Z" fill="#384955"/>
<path d="M441.396 85.6763C439.933 86.6125 438.267 87.3267 436.481 87.7738C434.273 87.694 431.543 87.3963 428.629 86.8784C426.332 86.4704 424.209 85.9768 422.408 85.4542C420.607 84.2294 419.178 82.6788 418.227 80.9374C419.254 80.1982 420.644 79.6362 422.27 79.2885L422.271 79.2886C423.437 79.0394 424.726 78.9003 426.088 78.8843C426.878 78.8751 427.692 78.9076 428.522 78.9836C429.215 79.0472 429.919 79.1411 430.629 79.2672C431.085 79.3481 431.532 79.4404 431.969 79.5429C432.144 79.5838 432.317 79.6266 432.488 79.6713C432.607 79.7015 432.725 79.7324 432.842 79.7653C433.066 79.8264 433.287 79.8905 433.506 79.9577C433.555 79.9727 433.603 79.9878 433.652 80.0035C435.142 80.4718 436.48 81.0633 437.615 81.7385C437.807 81.852 437.993 81.9688 438.173 82.0873C438.174 82.0881 438.175 82.0883 438.176 82.0884C439.8 83.156 440.933 84.3995 441.396 85.6763Z" fill="#FCBFAF"/>
<path d="M441.396 85.6763C439.933 86.6125 438.267 87.3266 436.481 87.7738C434.091 88.3727 431.485 88.4933 428.868 88.0283C426.41 87.5916 424.22 86.6878 422.408 85.4542C420.607 84.2294 419.178 82.6788 418.227 80.9374C419.254 80.1981 420.644 79.6362 422.27 79.2885L422.271 79.2886C422.271 79.2886 427.815 86.363 437.467 81.8085C437.516 81.7853 437.566 81.7622 437.615 81.7383C437.807 81.8518 437.993 81.9686 438.173 82.0871C438.174 82.0879 438.175 82.0881 438.176 82.0882C439.8 83.156 440.933 84.3994 441.396 85.6763Z" fill="#FF8D67"/>
<path d="M429.481 80.8673C428.237 80.511 428.364 79.6967 428.617 78.5143L429.621 73.8213C429.903 72.5039 431.347 71.5944 432.846 71.7898C434.345 71.9851 434.437 72.2528 434.155 73.5703L433.09 79.1823C432.808 80.4997 430.84 81.3447 429.481 80.8673Z" fill="#FCBFAF"/>
<path d="M431.055 67.9596C431.055 67.9596 425.042 72.9864 427.39 75.5023C428.832 77.0474 431.521 76.7682 435.066 75.7404C438.117 74.8558 437.919 65.0923 431.055 67.9596Z" fill="#FCBFAF"/>
<path d="M431.595 76.8134C430.434 76.9487 429.369 76.8494 428.361 76.3697C428.147 76.2677 428.353 75.975 428.567 76.077C429.519 76.5301 430.514 76.6058 431.605 76.4786C431.855 76.4495 431.841 76.7847 431.595 76.8134Z" fill="#F3A99C"/>
<path d="M438.58 74.1148C438.768 73.4167 438.779 72.6961 438.789 71.9818C438.8 71.2489 438.806 70.4962 438.501 69.813C437.991 68.6696 436.703 67.9188 435.415 67.3624L432.921 67.8998C433.446 68.0285 433.788 68.4286 433.732 68.7917C433.675 69.1547 433.549 69.5164 433.589 69.88C433.673 70.6393 434.44 71.196 434.82 71.8852C435.075 72.3477 434.816 72.8884 434.7 73.3924C434.597 73.8372 434.684 74.2536 434.674 74.7059C434.67 74.9281 434.723 75.1537 434.661 75.3703C434.596 75.5983 434.412 75.7879 434.283 75.9963C434.081 76.3225 434.015 76.7147 434.15 77.0614C434.286 77.4081 434.636 77.6973 435.062 77.765C435.795 77.8814 436.453 77.3666 436.915 76.8662C437.672 76.0466 438.307 75.125 438.58 74.1148Z" fill="#384955"/>
<path d="M442.137 80.9539C442.23 80.1599 441.981 79.3717 441.915 78.5772C441.845 77.7242 441.988 76.8639 442.239 76.0323C442.516 75.1156 442.74 74.1957 442.711 73.253C442.664 71.7329 441.785 70.3528 440.101 68.3261C437.974 65.7652 435.351 64.6382 432.546 65.2181C429.741 65.7979 430.375 68.5719 430.503 68.4515C432.694 66.3784 435.645 69.3613 435.69 72.0005L434.115 73.7574C434.193 74.3647 433.988 74.9977 433.554 75.4917C433.316 75.7628 433.005 76.0031 432.883 76.3238C432.716 76.7628 432.943 77.2379 432.872 77.6941C432.78 78.2862 432.206 78.7525 432.018 79.3294C431.767 80.1025 432.293 80.9434 433.09 81.3684C433.886 81.7933 434.889 81.8643 435.83 81.7686C436.179 81.7331 436.529 81.6764 436.879 81.6995C437.536 81.7428 438.111 82.0588 438.681 82.3335C439.25 82.6081 439.898 82.8564 440.546 82.7478C441.475 82.592 442.044 81.7481 442.137 80.9539Z" fill="#384955"/>
<path d="M433.573 73.5355C433.573 73.5355 434.887 72.5975 435.403 73.0667C435.918 73.5359 435.305 74.739 434.595 74.7885C433.885 74.8381 433.511 73.8875 433.542 73.7115L433.573 73.5355Z" fill="#FCBFAF"/>
<path d="M434.035 74.6432C433.954 74.5044 433.971 74.6208 434.06 74.6061C434.099 74.5998 434.176 74.6197 434.216 74.6205C434.395 74.6239 434.581 74.5834 434.742 74.5108C435.018 74.3855 435.195 74.1706 435.349 73.9394C435.439 73.8036 435.552 73.6677 435.525 73.4979C435.471 73.1616 435.085 73.1159 434.804 73.2446C434.582 73.3462 434.444 73.0334 434.664 72.9327C435.126 72.7211 435.69 72.8682 435.868 73.31C436.039 73.7351 435.65 74.2479 435.316 74.5448C435.036 74.7939 434.663 74.9455 434.268 74.956C434.068 74.9613 433.78 74.9494 433.677 74.774C433.565 74.5824 433.924 74.4533 434.035 74.6432Z" fill="#FDBAA0"/>
<path d="M432.705 67.8227C433.241 67.3901 434.118 67.35 434.67 67.768C434.925 67.9613 435.102 68.2319 435.149 68.5205C435.199 68.833 435.08 69.1407 434.979 69.4388C434.884 69.721 434.793 70.0165 434.865 70.3089C434.932 70.5823 435.142 70.7992 435.382 70.9809C435.634 71.1724 435.915 71.3351 436.147 71.5462C436.392 71.769 436.589 72.0316 436.724 72.314C437.004 72.9033 436.995 73.5694 436.661 74.1483C436.495 74.4352 436.256 74.6932 435.956 74.8889C435.688 75.0636 435.371 75.1968 435.167 75.4327C434.694 75.9803 435.156 76.6371 435.37 77.1775C435.51 77.5288 435.521 77.8736 435.312 78.2113C435.122 78.5184 434.824 78.7607 434.522 78.9899C433.946 79.4277 433.217 79.9697 433.344 80.6972C433.453 81.3289 434.221 81.5846 434.852 81.76C434.947 81.7862 434.98 81.658 434.886 81.632C434.222 81.4476 433.389 81.1448 433.495 80.4286C433.599 79.7291 434.364 79.3182 434.911 78.8612C435.181 78.6358 435.425 78.3753 435.552 78.0704C435.679 77.7659 435.642 77.4568 435.526 77.1569C435.399 76.8269 435.193 76.5167 435.136 76.1686C435.076 75.8014 435.218 75.5082 435.567 75.2808C435.858 75.0917 436.167 74.9413 436.41 74.7041C436.639 74.4811 436.813 74.2211 436.927 73.9434C437.163 73.3727 437.119 72.7472 436.835 72.1998C436.704 71.9476 436.529 71.7152 436.315 71.5079C436.08 71.28 435.789 71.1078 435.521 70.9096C435.231 70.695 435.001 70.4439 434.993 70.1031C434.986 69.7856 435.135 69.4786 435.227 69.1747C435.324 68.8577 435.356 68.5383 435.221 68.2279C435.1 67.9517 434.878 67.7107 434.587 67.5489C433.971 67.2064 433.121 67.307 432.591 67.7349C432.518 67.7936 432.633 67.881 432.705 67.8227Z" fill="#4D6371"/>
<path d="M433.103 67.5428C434.28 66.7488 436.159 66.7778 437.211 67.6969C437.495 67.9444 437.722 68.267 437.763 68.6163C437.811 69.0209 437.542 69.3345 437.363 69.6915C437.028 70.3613 437.204 71.1155 437.583 71.7367C437.998 72.4157 438.643 72.9617 439.195 73.558C439.717 74.1227 440.207 74.7824 440.224 75.525C440.232 75.8678 440.142 76.219 439.933 76.5173C439.717 76.8252 439.389 77.0156 439.007 77.1544C438.664 77.279 438.297 77.3795 438.007 77.5865C437.713 77.7962 437.538 78.1063 437.523 78.4286C437.492 79.07 438.123 79.4967 438.598 79.9136C438.894 80.1729 439.132 80.4628 439.261 80.8094C439.392 81.1584 439.477 81.6705 439.121 81.9535C438.961 82.0805 438.727 82.1424 438.522 82.0661C438.431 82.0323 438.358 82.1485 438.449 82.1823C438.774 82.3031 439.152 82.1749 439.345 81.929C439.593 81.6135 439.548 81.1937 439.437 80.8488C439.326 80.5065 439.115 80.2016 438.837 79.9384C438.572 79.6864 438.259 79.4693 438.014 79.2015C437.754 78.917 437.606 78.5766 437.715 78.2143C437.838 77.8097 438.216 77.5784 438.649 77.4209C439.013 77.2882 439.395 77.1817 439.699 76.9579C439.998 76.7385 440.194 76.4354 440.295 76.1163C440.801 74.5231 439.064 73.3487 438.106 72.2033C437.561 71.552 437.135 70.7122 437.435 69.9021C437.575 69.5228 437.894 69.2042 437.922 68.7964C437.945 68.4643 437.799 68.1383 437.579 67.8696C436.706 66.8011 434.835 66.5761 433.506 67.1638C433.334 67.24 433.172 67.3307 433.02 67.4333C432.942 67.4857 433.025 67.5957 433.103 67.5428Z" fill="#4D6371"/>
<path d="M439.107 77.9936C438.767 78.0039 438.506 78.2557 438.48 78.5337C438.446 78.8841 438.711 79.1806 439.001 79.4021C439.341 79.6621 439.7 79.8955 440.003 80.1887C440.318 80.4938 440.583 80.8423 440.738 81.2281C440.911 81.6573 440.944 82.1194 440.79 82.5591C440.761 82.6401 440.913 82.6666 440.941 82.586C441.248 81.7152 440.838 80.8222 440.176 80.1585C440.008 79.99 439.825 79.8328 439.632 79.685C439.422 79.5241 439.189 79.3824 438.99 79.2112C438.802 79.0493 438.638 78.8408 438.632 78.6052C438.625 78.3689 438.818 78.133 439.115 78.1241C439.214 78.1212 439.207 77.9906 439.107 77.9936Z" fill="#4D6371"/>
<path d="M435.803 76.1682C435.828 76.3888 435.898 76.597 436.011 76.7959C436.054 76.8713 436.184 76.7991 436.141 76.7244C436.04 76.5465 435.98 76.3572 435.958 76.1602C435.949 76.0767 435.794 76.0842 435.803 76.1682Z" fill="#4D6371"/>
<path d="M439.417 72.5149C439.535 72.6698 439.653 72.8247 439.77 72.9796C439.824 73.0501 439.955 72.9787 439.901 72.9081C439.784 72.7532 439.666 72.5983 439.548 72.4434C439.495 72.3728 439.364 72.4443 439.417 72.5149Z" fill="#4D6371"/>
<path d="M437.044 132.245C429.068 130.828 423.981 124.34 425.705 117.783C427.428 111.224 435.319 107.042 443.295 108.459C451.271 109.876 456.357 116.364 454.633 122.922C452.91 129.48 445.019 133.662 437.044 132.245ZM442.814 110.289C436.065 109.09 429.388 112.628 427.93 118.178C426.472 123.726 430.776 129.216 437.524 130.415C444.273 131.614 450.95 128.076 452.408 122.527C453.867 116.978 449.563 111.488 442.814 110.289Z" fill="#8FCEC5"/>
<path d="M430.584 117.835C431.298 119.246 432.011 120.657 432.725 122.068C433.068 122.745 433.41 123.422 433.753 124.099C433.969 124.527 434.174 124.967 434.478 125.358C435.154 126.226 436.403 126.748 437.647 126.719C439.325 126.679 440.48 125.707 441.642 124.841C442.28 124.364 442.911 123.881 443.54 123.397C446.922 120.789 450.247 118.131 453.612 115.508C455.047 114.389 456.478 113.262 457.974 112.197C458.544 111.791 458.827 110.912 458.787 110.323C458.746 109.708 458.365 108.982 457.782 108.579C457.156 108.146 456.34 107.84 455.502 107.909C454.644 107.98 454.028 108.276 453.381 108.736C447.573 112.872 442.322 117.516 436.588 121.721C436.47 121.807 436.351 121.893 436.233 121.979C436.04 122.119 435.825 122.158 436.545 121.764C436.274 121.914 436.365 121.891 436.817 121.697C438.42 121.528 439.429 121.911 439.845 122.845C439.857 122.801 439.682 122.522 439.674 122.507C439.56 122.281 439.445 122.055 439.331 121.83C439.131 121.435 438.932 121.04 438.732 120.645C437.99 119.177 437.248 117.71 436.506 116.243C436.19 115.618 435.739 115.092 434.989 114.769C434.303 114.475 433.313 114.377 432.577 114.605C431.098 115.062 429.915 116.513 430.584 117.835Z" fill="#FF8D67"/>
<path d="M416.621 90.8252C423.966 92.0772 431.311 93.329 438.656 94.581C439.373 94.7032 439.616 93.7882 438.897 93.6657C431.551 92.4137 424.206 91.1618 416.861 89.9098C416.144 89.7875 415.902 90.7026 416.621 90.8252Z" fill="#C0E2E8"/>
<path d="M415.507 94.9154C420.784 95.8148 426.06 96.7141 431.337 97.6135C438.052 98.758 444.766 99.9026 451.481 101.047C453.991 101.475 456.501 101.903 459.012 102.331C459.729 102.453 459.971 101.538 459.252 101.415C453.976 100.516 448.699 99.6165 443.423 98.7171C436.708 97.5726 429.993 96.4282 423.278 95.2836C420.768 94.8558 418.258 94.4279 415.748 94.0001C415.031 93.8779 414.788 94.7929 415.507 94.9154Z" fill="#C0E2E8"/>
<path d="M442.465 95.4318C446.817 96.1736 451.169 96.9154 455.521 97.6571C460.754 98.5491 465.987 99.441 471.219 100.333C473.373 100.7 475.526 101.067 477.68 101.434C478.397 101.556 478.639 100.641 477.92 100.519C473.568 99.7769 469.216 99.0351 464.865 98.2934C459.632 97.4014 454.399 96.5095 449.166 95.6176C447.013 95.2505 444.859 94.8835 442.706 94.5165C441.988 94.3942 441.746 95.3093 442.465 95.4318Z" fill="#C0E2E8"/>
<path d="M463.253 103.124C467.852 103.903 472.451 104.681 477.051 105.459C477.768 105.581 478.011 104.665 477.291 104.544C472.692 103.766 468.093 102.987 463.493 102.209C462.776 102.088 462.533 103.003 463.253 103.124Z" fill="#C0E2E8"/>
<path d="M414 98.6899C420.944 99.754 427.847 100.992 434.699 102.401C435.411 102.548 435.65 101.632 434.94 101.486C428.088 100.076 421.185 98.8386 414.241 97.7745C413.522 97.6643 413.278 98.5792 414 98.6899Z" fill="#C0E2E8"/>
<path d="M438.628 103.06C448.286 104.78 457.945 106.499 467.603 108.219C470.331 108.705 473.059 109.191 475.787 109.676C476.503 109.804 476.745 108.889 476.028 108.761C466.369 107.041 456.711 105.321 447.052 103.602C444.324 103.116 441.596 102.63 438.868 102.144C438.152 102.017 437.91 102.932 438.628 103.06Z" fill="#C0E2E8"/>
<path d="M457.65 75.5694C466.141 76.9921 474.632 78.4149 483.123 79.8376C483.836 79.9572 484.078 79.047 483.362 78.9271C474.871 77.5044 466.38 76.0817 457.889 74.659C457.175 74.5394 456.934 75.4495 457.65 75.5694Z" fill="#C0E2E8"/>
<path d="M456.837 78.6084C465.328 80.0311 473.819 81.4539 482.31 82.8766C483.024 82.9962 483.265 82.086 482.549 81.9661C474.058 80.5434 465.568 79.1207 457.077 77.698C456.363 77.5784 456.122 78.4885 456.837 78.6084Z" fill="#C0E2E8"/>
<path d="M456.173 82.4196C464.465 83.8262 472.758 85.2328 481.05 86.6394C481.763 86.7605 482.005 85.8503 481.289 85.729C472.997 84.3223 464.705 82.9158 456.412 81.5091C455.699 81.3881 455.458 82.2982 456.173 82.4196Z" fill="#C0E2E8"/>
<path d="M455.225 86.5515C459.554 87.2411 463.883 87.9306 468.212 88.6202C468.927 88.734 469.168 87.824 468.451 87.7097C464.122 87.0202 459.793 86.3306 455.464 85.6411C454.75 85.5273 454.508 86.4373 455.225 86.5515Z" fill="#C0E2E8"/>
<path d="M471.66 89.4087C474.717 89.964 477.774 90.5193 480.831 91.0745C481.543 91.2038 481.783 90.2935 481.07 90.164C478.013 89.6087 474.956 89.0535 471.899 88.4982C471.187 88.3689 470.947 89.2792 471.66 89.4087Z" fill="#C0E2E8"/>
<path d="M454.23 90.3313C462.625 91.8739 471.067 93.2381 479.547 94.4223C480.264 94.5224 480.507 93.6125 479.787 93.5119C471.306 92.3277 462.864 90.9635 454.469 89.4209C453.758 89.2901 453.518 90.2004 454.23 90.3313Z" fill="#C0E2E8"/>
<path d="M483.33 67.5457L481.238 75.5039L493.116 77.6144L483.33 67.5457Z" fill="#AFD0D3"/>
</g>
<defs>
<clipPath id="clip0_251_1511">
<rect width="554" height="186" rx="8" fill="white"/>
</clipPath>
</defs>
</svg>
