<svg width="554" height="186" viewBox="0 0 554 186" fill="none" xmlns="http://www.w3.org/2000/svg">
<g clip-path="url(#clip0_251_1722)">
<rect width="554" height="186" rx="8" fill="#D6EEFF"/>
<ellipse cx="501" cy="93" rx="151" ry="131" fill="#E4F1FB"/>
<path d="M389.487 90.517C391.892 121.26 375.674 145.033 430.361 152.266C440.042 153.546 453.42 154.464 464.709 154.199C473.856 153.985 483.916 153.005 492.806 150.224C507.488 145.627 518.425 136.289 518.765 118.101C519.111 99.4894 503.813 87.342 506.262 79.6975C513.84 56.0404 501.549 38.8221 477.278 32.7077C446.564 24.9705 434.171 50.5977 421.646 47.2646C401.347 41.8623 387.039 59.2175 389.487 90.517Z" fill="#ABD9F9"/>
<path d="M514.839 58.2923L442.146 36.4814L407.458 114.64L480.151 136.451L514.839 58.2923Z" fill="#97CDF2"/>
<path d="M468.039 61.431C466.835 64.1449 464.549 66.2773 461.726 67.6175C461.559 67.6965 461.391 67.7731 461.22 67.8473C459.835 68.4465 458.333 68.8607 456.776 69.0652C454.434 69.3737 451.966 69.2089 449.579 68.4932C447.338 67.8197 445.421 66.7368 443.914 65.3843C443.037 64.6007 442.298 63.7255 441.714 62.7871C441.292 62.1183 440.953 61.4166 440.696 60.6921C439.861 58.3531 439.896 55.7812 440.99 53.3145C443.717 47.1724 451.981 44.0115 459.45 46.2524C466.92 48.4933 470.765 55.29 468.039 61.431Z" fill="#E9F4F6"/>
<path d="M463.518 54.5487C461.973 48.9056 456.624 48.3417 456.624 48.3417C454.959 48.2141 453.341 48.609 452.015 49.2369C450.689 49.8647 449.62 50.7148 448.604 51.58C447.455 52.5581 446.357 53.5665 445.312 54.6029C445.108 54.8048 444.9 55.0212 444.882 55.2773C444.866 55.5107 445.012 55.7436 445.173 55.9589C446.615 57.8831 449.447 59.1367 452.275 59.9829C456.108 61.1295 460.212 61.7257 464.244 61.7212C464.336 59.3429 464.169 56.929 463.518 54.5487Z" fill="#384955"/>
<path d="M461.22 67.8474C459.834 68.4466 458.333 68.8609 456.775 69.0653C454.433 69.3738 451.966 69.209 449.578 68.4933C447.337 67.8198 445.42 66.7369 443.913 65.3844C443.036 64.6008 442.297 63.7256 441.713 62.7872C442.937 62.3559 444.403 62.094 446.013 62.0238C447.194 61.9711 448.452 62.0228 449.748 62.1886L449.75 62.1887C450.413 62.2719 451.085 62.3859 451.764 62.5308C452.949 62.7839 454.066 63.1147 455.094 63.5037C456.275 63.9521 457.339 64.4784 458.255 65.0574C459.591 65.9022 460.612 66.8587 461.22 67.8474Z" fill="#FFCFBF"/>
<path d="M454.595 66.8261C455.98 66.97 454.848 63.9638 454.848 63.9638L457.154 59.6381C457.828 58.3752 457.186 56.9067 455.722 56.3584C454.258 55.8098 453.5 55.7526 452.826 57.0156L449.635 62.3787C448.962 63.6417 452.64 66.623 454.595 66.8261Z" fill="#FFCFBF"/>
<path d="M460.814 52.5734C460.814 52.5734 462.486 60.3997 458.281 61.4174C455.698 62.0424 453.39 60.3338 450.869 57.4807C448.699 55.025 456.628 46.2507 460.814 52.5734Z" fill="#FFCFBF"/>
<path d="M453.284 60.3347C454.269 61.0856 455.35 61.5718 456.679 61.6807C456.961 61.7039 457 61.3264 456.718 61.3033C455.463 61.2005 454.466 60.7307 453.54 60.0243C453.328 59.863 453.075 60.1752 453.284 60.3347Z" fill="#FF9F89"/>
<path d="M461.536 53.4388C461.684 52.9915 461.529 52.5056 461.24 52.1075C460.951 51.7093 460.539 51.3832 460.132 51.0622C459.766 50.7739 459.392 50.4803 458.932 50.3052C458.47 50.1293 457.952 50.0844 457.443 50.0684C455.88 50.019 454.277 50.2299 452.91 50.8543C452.849 50.882 452.784 50.9153 452.763 50.9698C452.747 51.0122 452.761 51.058 452.776 51.1007C453.075 51.9641 453.469 52.8717 453.173 53.7357C453.853 53.665 454.517 53.5148 455.193 53.4189C457.326 53.1161 459.572 53.3719 461.525 54.1403L461.536 53.4388Z" fill="#384955"/>
<path d="M454.861 52.5187L454.463 51.7782C453.05 51.7617 451.672 52.3442 450.76 53.232C449.848 54.1197 449.383 55.2866 449.341 56.4482C449.32 57.0193 449.41 57.6241 449.828 58.0806C450.144 58.4252 450.612 58.6489 451.067 58.8634C451.163 58.9084 451.267 58.955 451.376 58.943C451.489 58.9305 451.577 58.8587 451.654 58.79C453.561 57.0929 454.649 54.8229 454.861 52.5187Z" fill="#384955"/>
<path d="M455.467 49.6491C453.933 49.9636 452.79 50.8265 451.712 51.7337C450.285 52.9353 448.856 54.1341 447.398 55.3109C447.321 55.373 447.426 55.482 447.504 55.4193C448.837 54.3431 450.154 53.2538 451.454 52.1507C452.617 51.1641 453.817 50.1303 455.494 49.7864C455.599 49.7649 455.573 49.6273 455.467 49.6491Z" fill="#4D6371"/>
<path d="M453.958 51.9194C452.365 53.5054 450.859 55.3481 448.824 56.5738C448.736 56.6268 448.842 56.735 448.93 56.6822C450.98 55.4476 452.491 53.5977 454.094 52.0022C454.164 51.933 454.028 51.8506 453.958 51.9194Z" fill="#4D6371"/>
<path d="M461.22 67.8474C459.834 68.4466 458.333 68.8608 456.775 69.0653C454.433 69.3738 451.966 69.209 449.578 68.4933C447.337 67.8198 445.42 66.7369 443.913 65.3844C443.036 64.6008 442.297 63.7256 441.713 62.7872C442.938 62.3559 444.404 62.0939 446.013 62.0238C447.124 62.9246 449.342 64.5681 451.755 65.4965L451.756 65.4966C452.918 65.9445 454.124 66.2252 455.273 66.1775C456.345 66.1328 457.365 65.804 458.255 65.0573C459.591 65.9022 460.612 66.8587 461.22 67.8474Z" fill="#384955"/>
<path d="M436.645 71.9853C443.352 73.9453 450.059 75.9055 456.766 77.8657C457.461 78.0689 457.886 77.192 457.19 76.9884C450.483 75.0282 443.776 73.0681 437.069 71.108C436.373 70.9047 435.948 71.7816 436.645 71.9853Z" fill="#D3F0F4"/>
<path d="M434.953 75.7114C439.771 77.1195 444.589 78.5276 449.407 79.9356C455.538 81.7274 461.669 83.5193 467.8 85.3112C470.093 85.9811 472.385 86.6511 474.678 87.321C475.373 87.5243 475.798 86.6473 475.101 86.4437C470.283 85.0356 465.465 83.6276 460.647 82.2196C454.516 80.4276 448.385 78.6358 442.254 76.8439C439.961 76.174 437.669 75.504 435.376 74.8341C434.681 74.6308 434.256 75.5078 434.953 75.7114Z" fill="#D3F0F4"/>
<path d="M460.213 79.0718C468.95 81.6254 477.688 84.179 486.426 86.7326C488.406 87.3115 490.387 87.8904 492.368 88.4692C493.063 88.6725 493.488 87.7956 492.791 87.5919C484.054 85.0383 475.316 82.4847 466.578 79.9311C464.598 79.3522 462.617 78.7733 460.636 78.1945C459.941 77.9911 459.516 78.8682 460.213 79.0718Z" fill="#D3F0F4"/>
<path d="M478.539 88.5195C482.74 89.7416 486.94 90.9637 491.141 92.1857C491.837 92.3881 492.262 91.5112 491.565 91.3083C487.364 90.0863 483.164 88.8643 478.963 87.6421C478.267 87.4398 477.842 88.3168 478.539 88.5195Z" fill="#D3F0F4"/>
<path d="M432.941 79.0987C439.3 80.8404 445.593 82.7399 451.812 84.7948C452.499 85.0217 452.921 84.144 452.236 83.9175C446.017 81.8625 439.724 79.963 433.365 78.2214C432.666 78.0299 432.24 78.9066 432.941 79.0987Z" fill="#D3F0F4"/>
<path d="M455.402 85.8327C466.697 89.2268 477.993 92.6209 489.288 96.015C489.982 96.2234 490.406 95.3463 489.712 95.1376C478.416 91.7435 467.121 88.3494 455.825 84.9553C455.132 84.7469 454.707 85.624 455.402 85.8327Z" fill="#D3F0F4"/>
<path d="M428.583 86.3758C433.401 87.7839 438.219 89.1919 443.037 90.5999C449.168 92.3919 455.299 94.1837 461.43 95.9756C463.723 96.6455 466.015 97.3155 468.307 97.9854C469.003 98.1887 469.428 97.3117 468.731 97.1081C463.913 95.7 459.095 94.2919 454.277 92.8839C448.146 91.0921 442.015 89.3002 435.883 87.5083C433.591 86.8384 431.299 86.1684 429.006 85.4985C428.311 85.2952 427.886 86.1722 428.583 86.3758Z" fill="#D3F0F4"/>
<path d="M472.168 99.1839C476.369 100.406 480.569 101.628 484.77 102.85C485.466 103.052 485.891 102.176 485.194 101.973C480.993 100.751 476.792 99.5287 472.592 98.3065C471.896 98.1042 471.471 98.9812 472.168 99.1839Z" fill="#D3F0F4"/>
<path d="M426.571 89.7631C432.93 91.5047 439.223 93.4042 445.442 95.4592C446.129 95.686 446.551 94.8083 445.866 94.5819C439.647 92.5269 433.354 90.6274 426.995 88.8858C426.295 88.6943 425.869 89.5709 426.571 89.7631Z" fill="#D3F0F4"/>
<path d="M449.031 96.4972C460.326 99.8913 471.621 103.285 482.917 106.679C483.611 106.888 484.035 106.011 483.341 105.802C472.045 102.408 460.75 99.014 449.454 95.6199C448.76 95.4114 448.336 96.2885 449.031 96.4972Z" fill="#D3F0F4"/>
<path d="M479.935 56.8038C487.692 59.0467 495.449 61.2895 503.206 63.5323C503.902 63.7336 504.327 62.8567 503.63 62.655C495.872 60.4122 488.115 58.1693 480.358 55.9265C479.662 55.7252 479.237 56.6021 479.935 56.8038Z" fill="#D3F0F4"/>
<path d="M478.691 59.5737C486.448 61.8165 494.205 64.0594 501.962 66.3022C502.658 66.5035 503.083 65.6266 502.385 65.4249C494.628 63.1821 486.871 60.9392 479.114 58.6964C478.418 58.4951 477.993 59.372 478.691 59.5737Z" fill="#D3F0F4"/>
<path d="M477.466 63.0855C485.039 65.292 492.612 67.4986 500.184 69.7051C500.88 69.9078 501.305 69.0308 500.608 68.8278C493.035 66.6212 485.462 64.4147 477.89 62.2082C477.194 62.0055 476.769 62.8824 477.466 63.0855Z" fill="#D3F0F4"/>
<path d="M475.923 66.8684C479.883 67.9782 483.844 69.088 487.804 70.1978C488.502 70.3934 488.928 69.5166 488.228 69.3205C484.267 68.2107 480.307 67.1009 476.346 65.9911C475.648 65.7955 475.223 66.6723 475.923 66.8684Z" fill="#D3F0F4"/>
<path d="M490.92 71.3066C493.707 72.1546 496.493 73.0026 499.279 73.8506C499.972 74.0615 500.396 73.1843 499.702 72.9733C496.916 72.1254 494.13 71.2773 491.344 70.4293C490.651 70.2184 490.227 71.0956 490.92 71.3066Z" fill="#D3F0F4"/>
<path d="M474.391 70.3152C482.039 72.6599 489.759 74.8424 497.544 76.8607C498.246 77.0426 498.673 76.1662 497.968 75.9834C490.183 73.9652 482.463 71.7826 474.814 69.4379C474.122 69.2256 473.698 70.1029 474.391 70.3152Z" fill="#D3F0F4"/>
<path d="M472.068 148.602L392.359 134.44L414.883 48.7384L482.714 60.7902L492.5 70.8588L472.068 148.602Z" fill="white"/>
<path d="M446.287 71.7142C445.505 74.6904 443.491 77.187 440.78 78.9208C439.317 79.857 437.651 80.5711 435.866 81.0183C433.475 81.6173 430.869 81.7378 428.252 81.2728C425.794 80.8361 423.604 79.9323 421.793 78.6987C419.991 77.4739 418.562 75.9233 417.611 74.1819C416.33 71.838 415.916 69.1491 416.627 66.4444C418.397 59.7103 426.471 55.4307 434.661 56.8858C442.852 58.341 448.056 64.9801 446.287 71.7142Z" fill="#E9F4F6"/>
<path d="M429.98 60.6419C428.913 60.5809 427.773 60.8049 427.033 61.5065C426.688 61.8333 426.477 62.2323 426.42 62.6651C426.362 63.1133 426.436 63.5605 426.47 64.007C426.504 64.467 426.493 64.9414 426.219 65.3572C425.962 65.7485 425.535 66.0756 425.434 66.5299C425.33 67.0018 425.621 67.4705 425.456 67.9386C425.371 68.1794 425.203 68.392 425.051 68.6064C424.898 68.8229 424.771 69.046 424.688 69.2884C424.505 69.8267 424.512 70.4111 424.583 70.9613C424.636 71.3744 424.77 71.8124 425.207 72.0489C425.29 72.0942 425.362 71.9775 425.279 71.9326C424.875 71.7138 424.774 71.2757 424.731 70.8986C424.676 70.4053 424.666 69.8941 424.81 69.4085C424.884 69.1586 425.005 68.9278 425.16 68.7058C425.297 68.5103 425.448 68.3197 425.548 68.1083C425.751 67.6786 425.595 67.2797 425.568 66.8411C425.538 66.3559 425.887 66.0146 426.195 65.635C426.476 65.2878 426.615 64.9158 426.636 64.4981C426.679 63.6475 426.316 62.7413 426.846 61.9468C427.472 61.0089 428.8 60.7046 429.988 60.7725C430.087 60.7781 430.078 60.6476 429.98 60.6419Z" fill="#384955"/>
<path d="M433.166 67.0068C433.43 65.8465 433.77 64.6978 434.184 63.5678L430.283 60.6289C429.466 60.7098 428.616 60.8704 427.996 61.3313C427.062 62.0264 426.908 63.1995 426.995 64.2407C427.082 65.282 427.34 66.3497 426.985 67.3542C426.608 68.4247 425.575 69.2845 425.285 70.3734C424.967 71.5688 425.645 72.8376 426.74 73.6272C427.835 74.4167 429.283 74.7849 430.72 74.9244C430.792 74.9314 430.867 74.9376 430.936 74.9173C431.065 74.8789 431.132 74.7614 431.184 74.6544C432.362 72.2305 432.583 69.5746 433.166 67.0068Z" fill="#384955"/>
<path d="M440.78 78.9208C439.317 79.857 437.651 80.5711 435.866 81.0183C433.657 80.9385 430.928 80.6408 428.013 80.1229C425.716 79.7149 423.593 79.2213 421.793 78.6987C419.991 77.4739 418.562 75.9233 417.611 74.1819C418.638 73.4426 420.028 72.8807 421.654 72.533L421.655 72.5331C422.822 72.2838 424.11 72.1448 425.472 72.1288C426.262 72.1195 427.076 72.1521 427.906 72.2281C428.599 72.2917 429.303 72.3855 430.013 72.5116C430.469 72.5926 430.916 72.6848 431.353 72.7873C431.528 72.8283 431.701 72.8711 431.872 72.9157C431.991 72.946 432.109 72.9769 432.226 73.0098C432.451 73.0709 432.672 73.135 432.89 73.2022C432.939 73.2172 432.988 73.2323 433.036 73.248C434.526 73.7162 435.864 74.3077 436.999 74.983C437.191 75.0965 437.378 75.2132 437.558 75.3317C437.558 75.3326 437.559 75.3327 437.56 75.3329C439.184 76.4005 440.317 77.644 440.78 78.9208Z" fill="#FCBFAF"/>
<path d="M440.78 78.9208C439.317 79.8569 437.651 80.5711 435.866 81.0183C433.475 81.6172 430.869 81.7378 428.252 81.2728C425.794 80.836 423.604 79.9322 421.793 78.6987C419.991 77.4739 418.562 75.9233 417.611 74.1819C418.638 73.4426 420.028 72.8807 421.654 72.5329L421.655 72.5331C421.655 72.5331 427.199 79.6075 436.852 75.053C436.901 75.0298 436.95 75.0067 436.999 74.9828C437.191 75.0963 437.378 75.2131 437.558 75.3316C437.558 75.3324 437.559 75.3326 437.56 75.3327C439.184 76.4004 440.317 77.6439 440.78 78.9208Z" fill="#FF8D67"/>
<path d="M428.865 74.1117C427.621 73.7555 427.748 72.9412 428.001 71.7588L429.006 67.0658C429.288 65.7484 430.732 64.8388 432.23 65.0343C433.729 65.2295 433.822 65.4973 433.54 66.8148L432.474 72.4268C432.192 73.7441 430.225 74.5891 428.865 74.1117Z" fill="#FCBFAF"/>
<path d="M430.438 61.204C430.438 61.204 424.425 66.2309 426.774 68.7468C428.216 70.2919 430.904 70.0127 434.449 68.9849C437.5 68.1003 437.303 58.3368 430.438 61.204Z" fill="#FCBFAF"/>
<path d="M430.979 70.0579C429.819 70.1931 428.754 70.0939 427.746 69.6142C427.532 69.5122 427.737 69.2194 427.952 69.3215C428.903 69.7746 429.899 69.8503 430.99 69.7231C431.239 69.694 431.226 70.0291 430.979 70.0579Z" fill="#F3A99C"/>
<path d="M437.964 67.3593C438.153 66.6611 438.164 65.9405 438.174 65.2262C438.184 64.4933 438.191 63.7407 437.886 63.0575C437.375 61.914 436.088 61.1632 434.8 60.6069L432.306 61.1442C432.831 61.2729 433.173 61.6731 433.117 62.0361C433.06 62.3992 432.934 62.7608 432.974 63.1244C433.057 63.8837 433.825 64.4405 434.205 65.1297C434.459 65.5921 434.2 66.1329 434.084 66.6368C433.982 67.0817 434.069 67.4981 434.059 67.9503C434.054 68.1726 434.107 68.3981 434.046 68.6148C433.981 68.8428 433.797 69.0323 433.668 69.2407C433.466 69.5669 433.4 69.9592 433.535 70.3058C433.671 70.6526 434.021 70.9418 434.447 71.0094C435.18 71.1259 435.837 70.611 436.3 70.1107C437.057 69.2911 437.692 68.3694 437.964 67.3593Z" fill="#384955"/>
<path d="M441.522 74.1984C441.615 73.4044 441.365 72.6162 441.3 71.8217C441.23 70.9687 441.373 70.1084 441.624 69.2768C441.901 68.3601 442.125 67.4402 442.096 66.4975C442.049 64.9774 441.169 63.5973 439.486 61.5706C437.359 59.0097 434.736 57.8827 431.931 58.4626C429.126 59.0425 429.76 61.8164 429.887 61.696C432.079 59.6229 435.03 62.6058 435.075 65.245L433.499 67.0019C433.578 67.6093 433.373 68.2422 432.939 68.7362C432.7 69.0074 432.389 69.2476 432.267 69.5683C432.1 70.0073 432.328 70.4824 432.257 70.9386C432.164 71.5307 431.59 71.9971 431.403 72.5739C431.152 73.347 431.678 74.1879 432.474 74.6129C433.271 75.0378 434.273 75.1088 435.215 75.0131C435.564 74.9776 435.914 74.9209 436.263 74.944C436.92 74.9873 437.496 75.3033 438.065 75.578C438.635 75.8526 439.283 76.1009 439.931 75.9923C440.859 75.8365 441.428 74.9926 441.522 74.1984Z" fill="#384955"/>
<path d="M432.957 66.78C432.957 66.78 434.271 65.8419 434.786 66.3112C435.302 66.7804 434.688 67.9835 433.978 68.033C433.268 68.0825 432.894 67.1319 432.926 66.9559L432.957 66.78Z" fill="#FCBFAF"/>
<path d="M433.418 67.8877C433.337 67.7489 433.354 67.8652 433.444 67.8506C433.482 67.8443 433.56 67.8641 433.6 67.8649C433.779 67.8684 433.965 67.8279 434.125 67.7553C434.402 67.6299 434.579 67.415 434.732 67.1839C434.823 67.0481 434.935 66.9122 434.908 66.7424C434.855 66.406 434.469 66.3604 434.188 66.489C433.966 66.5906 433.827 66.2778 434.047 66.1771C434.51 65.9656 435.074 66.1126 435.251 66.5545C435.422 66.9795 435.034 67.4923 434.7 67.7892C434.419 68.0383 434.046 68.19 433.651 68.2005C433.451 68.2058 433.163 68.1939 433.061 68.0185C432.948 67.8268 433.307 67.6978 433.418 67.8877Z" fill="#FDBAA0"/>
<path d="M432.088 61.0672C432.624 60.6346 433.502 60.5945 434.054 61.0125C434.309 61.2057 434.485 61.4764 434.532 61.765C434.583 62.0775 434.464 62.3851 434.363 62.6832C434.267 62.9654 434.177 63.2609 434.248 63.5534C434.315 63.8267 434.525 64.0436 434.765 64.2254C435.018 64.4169 435.299 64.5796 435.531 64.7907C435.775 65.0135 435.973 65.2761 436.107 65.5584C436.387 66.1478 436.378 66.8139 436.044 67.3928C435.878 67.6797 435.64 67.9376 435.34 68.1334C435.072 68.3081 434.755 68.4413 434.551 68.6772C434.078 69.2248 434.54 69.8816 434.754 70.422C434.893 70.7733 434.905 71.1181 434.696 71.4558C434.506 71.7629 434.208 72.0052 433.906 72.2344C433.33 72.6722 432.601 73.2142 432.727 73.9417C432.837 74.5734 433.604 74.8291 434.236 75.0045C434.33 75.0307 434.363 74.9025 434.27 74.8765C433.605 74.692 432.772 74.3892 432.879 73.6731C432.982 72.9736 433.747 72.5627 434.295 72.1057C434.565 71.8803 434.809 71.6197 434.936 71.3149C435.062 71.0104 435.026 70.7013 434.91 70.4014C434.783 70.0714 434.577 69.7612 434.52 69.4131C434.459 69.0458 434.602 68.7526 434.951 68.5253C435.242 68.3362 435.55 68.1858 435.794 67.9486C436.023 67.7256 436.196 67.4656 436.311 67.1879C436.546 66.6172 436.503 65.9917 436.219 65.4443C436.088 65.1921 435.913 64.9596 435.699 64.7524C435.463 64.5245 435.173 64.3523 434.905 64.154C434.615 63.9394 434.384 63.6884 434.377 63.3476C434.37 63.03 434.518 62.7231 434.611 62.4192C434.707 62.1022 434.739 61.7827 434.604 61.4724C434.484 61.1962 434.261 60.9552 433.971 60.7933C433.355 60.4509 432.505 60.5515 431.975 60.9794C431.902 61.0381 432.016 61.1255 432.088 61.0672Z" fill="#4D6371"/>
<path d="M432.488 60.7872C433.665 59.9933 435.543 60.0223 436.596 60.9414C436.879 61.1889 437.106 61.5114 437.147 61.8608C437.195 62.2654 436.926 62.5789 436.748 62.936C436.413 63.6058 436.588 64.36 436.968 64.9812C437.382 65.6602 438.027 66.2061 438.579 66.8025C439.102 67.3672 439.591 68.0269 439.609 68.7695C439.617 69.1122 439.526 69.4635 439.317 69.7618C439.102 70.0696 438.774 70.2601 438.392 70.3989C438.048 70.5235 437.682 70.6239 437.391 70.831C437.097 71.0407 436.923 71.3508 436.907 71.6731C436.876 72.3145 437.507 72.7412 437.982 73.1581C438.278 73.4173 438.516 73.7073 438.646 74.0539C438.776 74.4029 438.862 74.915 438.505 75.198C438.345 75.325 438.112 75.3868 437.906 75.3105C437.816 75.2768 437.743 75.3929 437.834 75.4268C438.158 75.5476 438.537 75.4193 438.73 75.1735C438.977 74.858 438.933 74.4382 438.821 74.0933C438.711 73.751 438.5 73.446 438.222 73.1828C437.956 72.9308 437.643 72.7138 437.398 72.4459C437.138 72.1615 436.99 71.8211 437.1 71.4587C437.222 71.0542 437.601 70.8229 438.033 70.6654C438.397 70.5327 438.779 70.4262 439.084 70.2024C439.382 69.983 439.578 69.6799 439.68 69.3608C440.186 67.7676 438.448 66.5932 437.49 65.4478C436.946 64.7965 436.52 63.9567 436.819 63.1465C436.959 62.7673 437.278 62.4487 437.306 62.0409C437.329 61.7088 437.183 61.3828 436.964 61.1141C436.09 60.0456 434.219 59.8206 432.89 60.4083C432.718 60.4845 432.556 60.5751 432.404 60.6778C432.327 60.7302 432.409 60.8401 432.488 60.7872Z" fill="#4D6371"/>
<path d="M438.491 71.2381C438.151 71.2484 437.891 71.5001 437.864 71.7782C437.831 72.1286 438.096 72.425 438.386 72.6466C438.726 72.9066 439.084 73.14 439.388 73.4332C439.703 73.7383 439.968 74.0868 440.123 74.4725C440.295 74.9018 440.329 75.3639 440.174 75.8036C440.146 75.8846 440.297 75.9111 440.326 75.8305C440.632 74.9597 440.222 74.0667 439.561 73.403C439.393 73.2345 439.21 73.0772 439.017 72.9295C438.806 72.7686 438.574 72.6269 438.375 72.4557C438.187 72.2938 438.022 72.0853 438.016 71.8497C438.01 71.6134 438.203 71.3775 438.499 71.3686C438.599 71.3657 438.591 71.2351 438.491 71.2381Z" fill="#4D6371"/>
<path d="M435.187 69.4127C435.211 69.6332 435.281 69.8415 435.394 70.0403C435.437 70.1158 435.568 70.0436 435.525 69.9689C435.424 69.7909 435.363 69.6017 435.342 69.4046C435.333 69.3212 435.178 69.3286 435.187 69.4127Z" fill="#4D6371"/>
<path d="M438.802 65.7594C438.92 65.9143 439.037 66.0692 439.155 66.2241C439.209 66.2946 439.339 66.2232 439.286 66.1526C439.168 65.9977 439.05 65.8428 438.933 65.6879C438.879 65.6174 438.748 65.6888 438.802 65.7594Z" fill="#4D6371"/>
<path d="M436.428 125.489C428.452 124.072 423.366 117.584 425.09 111.027C426.813 104.469 434.704 100.287 442.68 101.704C450.655 103.121 455.742 109.609 454.018 116.167C452.295 122.724 444.404 126.906 436.428 125.489ZM442.199 103.533C435.45 102.334 428.773 105.873 427.315 111.422C425.856 116.971 430.16 122.461 436.909 123.66C443.658 124.859 450.335 121.32 451.793 115.772C453.251 110.222 448.947 104.732 442.199 103.533Z" fill="#8FCEC5"/>
<path d="M429.969 111.08C430.683 112.491 431.396 113.902 432.11 115.312C432.452 115.99 432.795 116.667 433.137 117.344C433.354 117.771 433.559 118.211 433.863 118.602C434.539 119.47 435.788 119.993 437.032 119.963C438.71 119.923 439.865 118.952 441.026 118.085C441.665 117.609 442.296 117.126 442.925 116.641C446.307 114.034 449.632 111.375 452.997 108.752C454.432 107.634 455.863 106.506 457.358 105.442C457.929 105.035 458.212 104.156 458.172 103.567C458.13 102.952 457.75 102.226 457.166 101.823C456.54 101.391 455.725 101.085 454.887 101.154C454.029 101.225 453.413 101.52 452.765 101.981C446.957 106.116 441.706 110.761 435.973 114.965C435.855 115.052 435.736 115.138 435.617 115.224C435.425 115.364 435.21 115.403 435.93 115.009C435.659 115.158 435.75 115.136 436.202 114.941C437.805 114.773 438.814 115.156 439.23 116.09C439.242 116.045 439.066 115.767 439.059 115.751C438.944 115.526 438.83 115.3 438.716 115.074C438.516 114.679 438.317 114.284 438.117 113.889C437.375 112.422 436.633 110.955 435.89 109.487C435.574 108.863 435.123 108.336 434.373 108.014C433.688 107.719 432.698 107.622 431.961 107.849C430.483 108.307 429.3 109.757 429.969 111.08Z" fill="#FF8D67"/>
<path d="M416.005 84.0696C423.351 85.3216 430.696 86.5735 438.041 87.8255C438.758 87.9477 439 87.0326 438.281 86.9101C430.936 85.6581 423.591 84.4063 416.246 83.1543C415.529 83.032 415.286 83.947 416.005 84.0696Z" fill="#C0E2E8"/>
<path d="M414.892 88.1598C420.169 89.0592 425.445 89.9585 430.722 90.8579C437.436 92.0024 444.151 93.1469 450.866 94.2914C453.376 94.7192 455.886 95.1471 458.396 95.5749C459.114 95.6972 459.356 94.7821 458.637 94.6596C453.361 93.7603 448.084 92.8608 442.808 91.9615C436.093 90.817 429.378 89.6725 422.663 88.528C420.153 88.1002 417.643 87.6723 415.133 87.2445C414.415 87.1223 414.173 88.0373 414.892 88.1598Z" fill="#C0E2E8"/>
<path d="M441.85 88.6763C446.202 89.418 450.554 90.1598 454.906 90.9016C460.139 91.7935 465.371 92.6854 470.604 93.5773C472.758 93.9444 474.911 94.3114 477.064 94.6784C477.782 94.8007 478.024 93.8856 477.305 93.7631C472.953 93.0214 468.601 92.2796 464.249 91.5378C459.016 90.6459 453.784 89.754 448.551 88.862C446.397 88.495 444.244 88.1279 442.091 87.7609C441.373 87.6386 441.131 88.5537 441.85 88.6763Z" fill="#C0E2E8"/>
<path d="M462.637 96.3689C467.237 97.1472 471.836 97.9254 476.436 98.7037C477.153 98.8251 477.395 97.91 476.676 97.7883C472.077 97.0101 467.477 96.2318 462.878 95.4536C462.161 95.3321 461.918 96.2473 462.637 96.3689Z" fill="#C0E2E8"/>
<path d="M413.385 91.9343C420.329 92.9984 427.232 94.2362 434.084 95.6458C434.795 95.7922 435.035 94.8766 434.324 94.7304C427.472 93.3208 420.569 92.0831 413.626 91.019C412.906 90.9087 412.663 91.8236 413.385 91.9343Z" fill="#C0E2E8"/>
<path d="M438.012 96.3042C447.671 98.024 457.329 99.7437 466.988 101.464C469.716 101.949 472.444 102.435 475.172 102.921C475.888 103.048 476.13 102.133 475.412 102.005C465.754 100.286 456.095 98.5659 446.437 96.8461C443.709 96.3603 440.981 95.8746 438.253 95.3888C437.537 95.2614 437.295 96.1765 438.012 96.3042Z" fill="#C0E2E8"/>
<path d="M457.035 68.8139C465.526 70.2366 474.017 71.6593 482.507 73.082C483.221 73.2017 483.462 72.2915 482.747 72.1716C474.256 70.7488 465.765 69.3261 457.274 67.9034C456.56 67.7838 456.319 68.6939 457.035 68.8139Z" fill="#C0E2E8"/>
<path d="M456.222 71.8529C464.713 73.2756 473.204 74.6983 481.695 76.121C482.409 76.2407 482.65 75.3305 481.934 75.2106C473.443 73.7878 464.952 72.3651 456.462 70.9424C455.748 70.8228 455.507 71.7329 456.222 71.8529Z" fill="#C0E2E8"/>
<path d="M455.558 75.664C463.85 77.0707 472.142 78.4772 480.435 79.8839C481.148 80.005 481.389 79.0948 480.674 78.9734C472.382 77.5668 464.09 76.1602 455.797 74.7536C455.084 74.6326 454.843 75.5427 455.558 75.664Z" fill="#C0E2E8"/>
<path d="M454.61 79.7961C458.939 80.4856 463.268 81.1751 467.597 81.8647C468.311 81.9785 468.553 81.0685 467.836 80.9542C463.507 80.2647 459.178 79.5751 454.849 78.8856C454.135 78.7718 453.893 79.6818 454.61 79.7961Z" fill="#C0E2E8"/>
<path d="M471.045 82.6531C474.102 83.2085 477.159 83.7637 480.216 84.319C480.928 84.4483 481.168 83.538 480.455 83.4085C477.398 82.8532 474.341 82.2979 471.284 81.7426C470.572 81.6133 470.332 82.5237 471.045 82.6531Z" fill="#C0E2E8"/>
<path d="M453.615 83.5758C462.009 85.1183 470.452 86.4826 478.932 87.6668C479.649 87.7668 479.892 86.8569 479.172 86.7563C470.691 85.5721 462.249 84.208 453.854 82.6653C453.142 82.5345 452.902 83.4449 453.615 83.5758Z" fill="#C0E2E8"/>
<path d="M482.714 60.7902L480.623 68.7483L492.501 70.8588L482.714 60.7902Z" fill="#AFD0D3"/>
</g>
<defs>
<clipPath id="clip0_251_1722">
<rect width="554" height="186" rx="8" fill="white"/>
</clipPath>
</defs>
</svg>
