<svg width="208" height="34" viewBox="0 0 208 34" fill="none" xmlns="http://www.w3.org/2000/svg">
<path d="M0 4.46882C0 2.32909 1.7346 0.594491 3.87433 0.594491H26.6733C28.813 0.594491 30.5476 2.32909 30.5476 4.46882V27.2677C30.5476 29.4075 28.813 31.1421 26.6733 31.1421H3.87433C1.73459 31.1421 0 29.4075 0 27.2677V4.46882Z" fill="#0067BF"/>
<path fill-rule="evenodd" clip-rule="evenodd" d="M15.2275 3.50022C18.4308 5.24089 21.9902 6.31853 25.6692 6.66156C25.6795 7.329 25.7046 8.17862 25.7325 9.12232C25.8267 12.3582 25.9699 17.2485 25.6255 18.8718L25.6075 18.9544C24.8159 22.4743 21.3314 25.5953 15.2471 28.2363C9.51522 25.7413 6.06275 22.7345 4.98491 19.2974C4.64721 18.221 4.78488 12.4155 4.86683 8.9477C4.88917 8.02353 4.90866 7.19365 4.9189 6.54563C9.40902 5.95341 12.8717 4.93124 15.2275 3.50022ZM20.3309 10.4064C20.163 10.2382 19.8869 10.2382 19.7191 10.4064L13.3138 16.8284L10.8258 14.335C10.658 14.1668 10.3819 14.1668 10.214 14.335L8.47056 16.0823C8.30275 16.2505 8.30275 16.5272 8.47056 16.6954C9.98389 18.2121 11.4837 19.7369 12.997 21.2535C13.1649 21.4244 13.441 21.4244 13.6088 21.2535L22.077 12.7669C22.2448 12.5987 22.2448 12.3246 22.077 12.1537L20.3309 10.4064Z" fill="white"/>
<path d="M64.4792 1.65304e-06V6.03635H55.1045V32.8798H48.2908V6.03635H38.9162V1.65304e-06H64.4792Z" fill="#0066BF"/>
<path d="M71.0629 11.1124C72.7091 9.37464 75.1328 8.18566 77.9681 8.18566V14.5421C73.8524 14.5421 71.4287 16.417 71.4287 19.6181V32.8798H64.6607V8.78015H71.0629V11.1124Z" fill="#0066BF"/>
<path d="M96.5516 8.41431H103.32V32.8798H96.9631V30.2275C95.2711 31.9652 92.8017 33.1085 89.9207 33.1085C83.7929 33.1085 80.5918 28.9013 80.5918 23.4137V8.41431H87.3599V22.5448C87.3599 25.1972 89.0976 27.0721 91.9328 27.0721C94.7224 27.0721 96.5516 25.1972 96.5516 22.682V8.41431Z" fill="#0066BF"/>
<path d="M117.572 32.9713V26.9349H119.401C121.779 26.9349 123.562 25.5173 123.562 23.0479V0H130.376V23.1393C130.376 29.1757 126.443 32.9713 119.95 32.9713H117.572Z" fill="#0066BF"/>
<path d="M145.687 33.017C138.05 33.017 132.654 27.5751 132.654 20.3955C132.654 13.1702 138.05 7.77409 145.687 7.77409C153.278 7.77409 158.72 13.1702 158.72 20.3955C158.72 27.5751 153.278 33.017 145.687 33.017ZM145.733 26.9806C149.391 26.9806 151.952 24.2369 151.952 20.3498C151.952 16.5085 149.483 13.8104 145.733 13.8104C141.983 13.8104 139.468 16.5085 139.468 20.3955C139.468 24.2369 141.983 26.9806 145.733 26.9806Z" fill="#0066BF"/>
<path d="M174.908 7.68263C181.859 7.68263 186.706 13.0788 186.706 20.3041C186.706 27.4837 181.676 32.9255 174.725 32.9255C171.615 32.9255 169.1 31.7823 167.316 29.8159V32.9713H161.051V2.09335e-06H167.82V10.335C169.603 8.64295 172.027 7.68263 174.908 7.68263ZM173.81 26.9349C177.377 26.9349 179.984 24.1454 179.984 20.3041C179.984 16.4628 177.377 13.6275 173.81 13.6275C170.06 13.6275 167.545 16.3713 167.545 20.3041C167.545 24.2369 170.06 26.9349 173.81 26.9349Z" fill="#0066BF"/>
<path d="M197.848 33.017C192.498 33.017 188.656 30.822 187.284 26.6605L193.001 24.4655C193.641 26.5691 195.379 27.8038 198.077 27.8038C200.089 27.8038 201.278 26.9806 201.278 25.6088C201.278 21.4016 188.428 23.4137 188.428 15.1366C188.428 10.5636 192.177 7.77409 198.031 7.77409C202.833 7.77409 206.308 9.74047 207.314 13.0788L201.598 15.2738C201.003 13.6275 199.723 12.8044 197.939 12.8044C196.11 12.8044 195.104 13.5361 195.104 14.7708C195.104 18.6578 208 16.3256 208 25.1972C208 30.0446 204.022 33.017 197.848 33.017Z" fill="#0066BF"/>
<path d="M107.49 21.3607C107.668 19.2022 107.78 17.1405 107.825 15.1755C109.939 15.2351 111.933 15.2649 113.809 15.2649C115.714 15.2649 117.716 15.2351 119.815 15.1755C119.637 17.0958 119.525 19.1576 119.48 21.3607C117.367 21.316 115.364 21.2937 113.474 21.2937C111.583 21.2937 109.589 21.316 107.49 21.3607Z" fill="#0066BF"/>
</svg>
